<svg xmlns="http://www.w3.org/2000/svg" width="800" height="800" viewBox="0 0 32 32" xml:space="preserve"><path d="M28.598 20.976c-.014-.232-.022-.466-.043-.698-.043-.478-.087-.956-.118-1.434-.026-.37-.035-.74-.191-1.082a.972.972 0 0 0-.205-.279c-.144-.146-.285-.196-.47-.275-.123-.051-.274-.05-.414-.061-.181-.03-.36-.065-.544-.086-.206-.025-.413-.042-.62-.06a85.73 85.73 0 0 0-.014-.717l-.005-.232c.128.085.27.145.43.135.421-.023.842-.043 1.255-.132a1.02 1.02 0 0 0 .763-.72c.043-.159.026-.327.043-.488.051-.503.026-1.021.028-1.528.006-.718.132-1.707-.592-2.132-.342-.199-.763-.166-1.145-.164-.285 0-.571-.021-.858-.039 0-.436-.009-.872-.014-1.307.254.001.507-.03.758-.06.183-.024.364-.045.547-.059.283-.021.58-.038.832-.183a.985.985 0 0 0 .403-.411 1.59 1.59 0 0 0 .142-.568c.014-.144.008-.291.008-.435-.004-.275-.012-.551-.01-.826.002-.35.01-.702.002-1.052-.01-.386-.035-.779-.197-1.133a1.092 1.092 0 0 0-.734-.586c-.183-.041-.372-.051-.557-.067a5.955 5.955 0 0 0-.517-.019c-.173 0-.345.004-.517.005h-.056l.003-.061c.018-.264-.126-.493-.329-.648-.016-.042-.02-.087-.043-.126-.106-.181-.317-.372-.533-.409A3.718 3.718 0 0 0 24.501 3c-.171 0-.342.006-.514.008-.167.004-.334.004-.502.002-.167 0-.332 0-.5.002-.679.01-1.357.02-2.038.036-1.611.04-3.222.132-4.833.132-.842 0-1.684-.04-2.525-.045-.702-.004-1.402-.041-2.105-.051-.277-.004-.551-.023-.826-.039-.33-.018-.663-.002-.993 0-.366 0-.734.014-1.099.012-.38 0-.759-.006-1.141-.004-.33.004-.663.01-.993.02a.86.86 0 0 0-.853.852c0 .025.013.048.015.073a.784.784 0 0 0-.142.452c.014.443.041.884.068 1.325-.28.009-.56.015-.84.031-.502.025-.921.399-.921.92 0 .48.419.952.921.92.302-.018.603-.04.904-.062.006.523.01 1.045.029 1.567.004.121.005.243.007.365-.43.043-.862.06-1.292.09-.458.032-.844.361-.844.844 0 .431.384.881.844.844.45-.037.899-.083 1.348-.132l.016.326c.034.64.075 1.277.119 1.915-.52.05-1.047.062-1.57.086-.458.021-.844.368-.844.844 0 .44.384.872.844.846.559-.033 1.112-.113 1.668-.15.029.436.066.871.078 1.307.005.206.013.412.02.617-.51.002-1.022-.039-1.53-.073l-.049-.002c-.452 0-.822.438-.822.873 0 .496.397.848.871.873.526.028 1.057.041 1.584.028.021.788.02 1.579.004 2.369-.046-.001-.091-.004-.137-.004-.405 0-.813.036-1.213.078-.228.023-.419.075-.586.244a.829.829 0 0 0 0 1.172c.14.14.382.268.586.242.42-.051.849-.099 1.275-.105-.013.229-.028.458-.035.687-.014.44-.024.879-.047 1.32-.007.117-.009.235-.015.353-.434.025-.868.052-1.302.082-.236.018-.443.083-.614.254a.871.871 0 0 0-.254.614c0 .442.395.905.867.867a45.03 45.03 0 0 0 1.221-.12c-.031.463-.069.926-.105 1.389-.037.474.425.874.873.874.055 0 .105-.022.159-.032a.82.82 0 0 0 .328.064 62.898 62.898 0 0 0 1.503-.059c.415-.021.828-.062 1.241-.084.812-.045 1.625-.035 2.437-.029.903.01 1.808-.006 2.712-.022.822-.014 1.646-.027 2.468-.025 1.316.006 2.632.02 3.948.061.588.02 1.18.031 1.768.077.592.043 1.194.051 1.786.025a.898.898 0 0 0 .483-.176c.42-.052.8-.412.778-.855-.018-.34-.014-.683-.028-1.025-.012-.324-.02-.649-.028-.974-.018-.771 0-1.542.002-2.311 0-.441-.008-.882-.013-1.322h.001c.067.006.134.012.203.02l-.154-.021a4.1 4.1 0 0 0 .736.04c.285-.016.566-.036.852-.079.385-.059.655-.36.783-.708.068-.178.064-.372.054-.557zm-2.004-8.338c.073.002.148 0 .222-.002l.101-.001c.025.386.018.775.021 1.16.002.251.005.499-.006.747-.176.01-.352.011-.529-.005-.16-.014-.323.062-.46.158-.006-.307-.012-.614-.02-.92-.012-.383-.007-.766-.01-1.149.227.004.454.011.681.012zm.33-6.723c.023.418-.006.836-.024 1.254-.009.25-.008.503-.014.755-.339.038-.68.059-1.018.049-.01-.441-.025-.884-.011-1.325.008-.242.028-.483.04-.725.343-.012.685-.024 1.027-.008zm-4.211 21.297c-.846-.022-1.693-.042-2.541-.057a41.815 41.815 0 0 0-.937-.009c-.521 0-1.043.007-1.565.013-.899.012-1.798.021-2.697.043-1.261.027-2.522.025-3.782.039-.633.008-1.267.042-1.902.065-.591.021-1.183.028-1.775.04.075-1.108.065-2.222.103-3.331.055-1.574.081-3.151.061-4.725-.01-.787-.067-1.572-.087-2.356-.02-.757-.031-1.512-.075-2.268-.049-.828-.13-1.65-.159-2.479-.028-.794-.067-1.589-.081-2.386-.014-.889-.004-1.78-.01-2.669-.004-.794-.025-1.59-.043-2.387a26.261 26.261 0 0 1 1.707-.037c.372.006.745.01 1.117.01.295.002.584.023.877.041.622.038 1.249.034 1.872.049.407.008.814.01 1.223.01.411 0 .822.028 1.235.04.846.02 1.69-.01 2.533-.045.812-.031 1.627-.031 2.439-.037 1.35-.008 2.701-.055 4.051-.014a86.604 86.604 0 0 0-.06 3.31c.008.409.037.818.053 1.227.031.872.026 1.745.029 2.616.004.859.02 1.719.043 2.579.02.796.018 1.593.01 2.39-.008.846.024 1.691.041 2.535.033 1.601.029 3.202.041 4.803a68.7 68.7 0 0 1-.008 1.926c-.004.287.002.572 0 .857-.001.081.004.161.003.241-.207-.002-.413-.009-.62-.011-.364-.006-.728-.015-1.096-.023zm3.914-6.57c-.091-.021-.179-.047-.271-.067a.956.956 0 0 0-.261-.01c-.012-.587-.021-1.175-.049-1.761-.003-.049-.003-.097-.005-.146.23.013.461.017.69.041l.111.016c.028.388.028.778.049 1.167.015.255.042.512.053.768a4.74 4.74 0 0 1-.317-.008zm-7.728-.631c-.026-.195-.051-.387-.094-.58a3.148 3.148 0 0 0-.197-.559c-.104-.24-.222-.476-.336-.712-.256-.541-.69-1.048-1.227-1.324-.051-.026-.107-.043-.16-.067.165-.16.315-.333.44-.539.1-.163.165-.348.234-.527a2.44 2.44 0 0 0 .108-.37c.134-.631.205-1.308-.02-1.929a3.328 3.328 0 0 0-.675-1.124c-.309-.344-.677-.702-1.149-.781a1.407 1.407 0 0 0-.237-.023.77.77 0 0 0-.444-.118c-.474.024-.96.055-1.381.297-.327.188-.545.479-.745.791a7.74 7.74 0 0 0-.435.783 9.039 9.039 0 0 0-.256.58 2.191 2.191 0 0 0-.109.461l.006-.054-.014.108-.014.106.009-.069c-.044.374-.058.728.006 1.109.058.333.264.616.467.879.125.169.243.347.408.478.089.07.184.127.277.188a3.956 3.956 0 0 0-1.256.946c-.818.918-1.088 2.195-1.153 3.387l-.004.101c-.018.452.391.83.828.83.46 0 .818-.378.828-.83.008-.269.008-.539.034-.807.058-.348.158-.688.287-1.018.085-.188.185-.371.301-.541.153-.179.328-.337.51-.485.128-.089.266-.163.408-.228.288-.106.599-.161.904-.207.224-.024.457-.031.683-.014.079.016.157.036.234.062.102.05.201.105.294.168.088.078.172.16.25.249.088.135.162.278.235.422.091.182.182.363.266.549.078.215.126.439.162.664.048.399.082.801.104 1.203.028.47.372.863.863.863.48 0 .848-.393.862-.863.008-.242-.022-.486-.037-.728a7.351 7.351 0 0 0-.065-.727zm-5.102-5.458a2.28 2.28 0 0 1 .096-.356c.128-.275.282-.543.461-.789.071-.087.146-.171.229-.247l.034-.02c.025-.007.049-.014.074-.019.15-.011.301-.013.452-.018l.017-.001c.061.034.128.06.199.076l.041.008.002.001c.152.135.286.288.415.446.073.104.136.213.192.327.034.097.061.197.081.298.011.161.007.319-.008.479a3.298 3.298 0 0 1-.143.58 2.231 2.231 0 0 1-.118.2 2.264 2.264 0 0 1-.219.208 2.407 2.407 0 0 1-.228.141 1.715 1.715 0 0 1-.144.044 2.52 2.52 0 0 1-.288-.005 3.586 3.586 0 0 1-.528-.135 2.117 2.117 0 0 1-.235-.137.835.835 0 0 1-.059-.06 3.519 3.519 0 0 1-.307-.458 1.488 1.488 0 0 1-.027-.101 3.568 3.568 0 0 1 .011-.462z" style="fill:#111918"/></svg>